<?xml version="1.0" encoding="UTF-8"?>
<svg width="579px" height="239px" viewBox="0 0 579 239" version="1.1" xmlns="http://www.w3.org/2000/svg" xmlns:xlink="http://www.w3.org/1999/xlink">
    <!-- Generator: Sketch 51.1 (57501) - http://www.bohemiancoding.com/sketch -->
    <desc>Created with Sketch.</desc>
    <defs></defs>
    <g id="Page-1" stroke="none" stroke-width="1" fill="none" fill-rule="evenodd">
        <g id="Group-2" transform="translate(-10.000000, 0.000000)">
            <polygon id="Triangle" fill="#D0021B" fill-rule="nonzero" transform="translate(132.500000, 153.500000) scale(1, -1) translate(-132.500000, -153.500000) " points="132.5 126 155 181 110 181"></polygon>
            <polygon id="Path-2" fill="#000000" fill-rule="nonzero" points="10 182.035156 86.1875 182.035156 133.045898 72.6015625 177.830078 182.035156 270.297852 182.035156 310.392578 90.0683594 349.873047 182.035156 440.647461 182.035156 514.052734 11.9414062 514.052734 182.035156 587.081055 182.035156 587.081055 0 442.304688 0 395.277344 113.050781 347.616211 0 272.501953 0 225.492187 113.050781 178.830078 0 89.2070312 0"></polygon>
            <path d="M36.3118782,208.566406 L46.5071907,208.566406 L46.5071907,212.238281 L42.9525032,212.238281 L42.9525032,234.328125 L46.5071907,234.328125 L46.5071907,238 L35.432972,238 L35.432972,234.328125 L38.9095345,234.328125 L38.9095345,212.238281 L28.792347,238.3125 L27.9134407,238.3125 L17.8743782,212.238281 L17.8743782,234.328125 L21.1165657,234.328125 L21.1165657,238 L10.667347,238 L10.667347,234.328125 L14.2415657,234.328125 L14.2415657,212.238281 L10.667347,212.238281 L10.667347,208.566406 L20.7650032,208.566406 L28.5189095,228.722656 L36.3118782,208.566406 Z M81.8387527,212.121094 L89.8075027,234.328125 L93.0887527,234.328125 L93.0887527,238 L81.4871902,238 L81.4871902,234.328125 L85.3348465,234.328125 L83.0496902,227.648438 L72.3660965,227.648438 L70.0809402,234.328125 L73.811409,234.328125 L73.811409,238 L62.1317215,238 L62.1317215,234.328125 L65.686409,234.328125 L73.6160965,212.121094 L70.0809402,212.121094 L70.0809402,208.566406 L85.373909,208.566406 L85.373909,212.121094 L81.8387527,212.121094 Z M77.8153152,212.121094 L77.6785965,212.121094 L73.5184402,224.191406 L81.8778152,224.191406 L77.8153152,212.121094 Z M131.916409,211.808594 L131.916409,208.566406 L135.666409,208.566406 L135.666409,218 L131.838284,218 C130.874737,216.11197 129.553136,214.64063 127.87344,213.585938 C126.193744,212.531245 124.351314,212.003906 122.346096,212.003906 C120.405982,212.003906 118.674229,212.514969 117.150784,213.537109 C115.627338,214.55925 114.439199,215.926424 113.58633,217.638672 C112.733462,219.35092 112.307034,221.190094 112.307034,223.15625 C112.307034,225.18751 112.752993,227.062491 113.644924,228.78125 C114.536856,230.500009 115.764057,231.873693 117.326565,232.902344 C118.889073,233.930995 120.627336,234.445312 122.541409,234.445312 C124.898191,234.445312 126.981504,233.725919 128.791409,232.287109 C130.601313,230.8483 131.922915,228.807305 132.756252,226.164062 L136.506252,228.15625 C135.490622,231.437516 133.69702,233.979809 131.125393,235.783203 C128.553765,237.586598 125.536218,238.488281 122.072659,238.488281 C119.221082,238.488281 116.688555,237.80795 114.475002,236.447266 C112.26145,235.086582 110.539462,233.257173 109.308987,230.958984 C108.078512,228.660796 107.463284,226.138035 107.463284,223.390625 C107.463284,220.408839 108.091532,217.752616 109.348049,215.421875 C110.604566,213.091134 112.339575,211.284512 114.553127,210.001953 C116.76668,208.719395 119.299207,208.078125 122.150784,208.078125 C124.064856,208.078125 125.829161,208.397132 127.443752,209.035156 C129.058344,209.67318 130.549214,210.59765 131.916409,211.808594 Z M161.056564,212.238281 L161.056564,220.558594 L173.849533,220.558594 L173.849533,212.238281 L170.412033,212.238281 L170.412033,208.566406 L181.681564,208.566406 L181.681564,212.238281 L178.283127,212.238281 L178.283127,234.328125 L181.681564,234.328125 L181.681564,238 L170.412033,238 L170.412033,234.328125 L173.849533,234.328125 L173.849533,224.230469 L161.056564,224.230469 L161.056564,234.328125 L164.533127,234.328125 L164.533127,238 L153.283127,238 L153.283127,234.328125 L156.603439,234.328125 L156.603439,212.238281 L153.283127,212.238281 L153.283127,208.566406 L164.533127,208.566406 L164.533127,212.238281 L161.056564,212.238281 Z M205.431095,212.238281 L205.431095,234.328125 L208.63422,234.328125 L208.63422,238 L197.794376,238 L197.794376,234.328125 L200.97797,234.328125 L200.97797,212.238281 L197.794376,212.238281 L197.794376,208.566406 L208.63422,208.566406 L208.63422,212.238281 L205.431095,212.238281 Z M247.52047,212.238281 L243.321251,212.238281 L243.321251,208.566406 L255.391563,208.566406 L255.391563,212.238281 L251.075157,212.238281 L251.075157,238.3125 L246.504845,238.3125 L232.383751,213.15625 L232.383751,234.328125 L236.602501,234.328125 L236.602501,238 L224.55172,238 L224.55172,234.328125 L228.750938,234.328125 L228.750938,212.238281 L224.55172,212.238281 L224.55172,208.566406 L234.590782,208.566406 L247.52047,231.4375 L247.52047,212.238281 Z M291.484844,217.160156 L291.484844,212.238281 L278.887188,212.238281 L278.887188,221.007812 L289.844219,221.007812 L289.844219,224.679688 L278.887188,224.679688 L278.887188,234.328125 L291.484844,234.328125 L291.484844,228.957031 L295.117657,228.957031 L295.117657,238 L270.645,238 L270.645,234.328125 L274.434063,234.328125 L274.434063,212.238281 L270.645,212.238281 L270.645,208.566406 L295.117657,208.566406 L295.117657,217.160156 L291.484844,217.160156 Z M343.749531,212.238281 L343.749531,234.328125 L353.4175,234.328125 L353.4175,225.207031 L357.069843,225.207031 L357.069843,238 L335.507343,238 L335.507343,234.328125 L339.296406,234.328125 L339.296406,212.238281 L335.507343,212.238281 L335.507343,208.566406 L347.538593,208.566406 L347.538593,212.238281 L343.749531,212.238281 Z M381.034218,212.238281 L381.034218,234.328125 L384.237343,234.328125 L384.237343,238 L373.397499,238 L373.397499,234.328125 L376.581093,234.328125 L376.581093,212.238281 L373.397499,212.238281 L373.397499,208.566406 L384.237343,208.566406 L384.237343,212.238281 L381.034218,212.238281 Z M426.150936,208.566406 L436.346249,208.566406 L436.346249,212.238281 L432.791561,212.238281 L432.791561,234.328125 L436.346249,234.328125 L436.346249,238 L425.27203,238 L425.27203,234.328125 L428.748592,234.328125 L428.748592,212.238281 L418.631405,238.3125 L417.752499,238.3125 L407.713436,212.238281 L407.713436,234.328125 L410.955624,234.328125 L410.955624,238 L400.506405,238 L400.506405,234.328125 L404.080624,234.328125 L404.080624,212.238281 L400.506405,212.238281 L400.506405,208.566406 L410.604061,208.566406 L418.357967,228.722656 L426.150936,208.566406 Z M460.252029,212.238281 L460.252029,234.328125 L463.455154,234.328125 L463.455154,238 L452.615311,238 L452.615311,234.328125 L455.798904,234.328125 L455.798904,212.238281 L452.615311,212.238281 L452.615311,208.566406 L463.455154,208.566406 L463.455154,212.238281 L460.252029,212.238281 Z M500.017185,219.328125 L500.017185,212.238281 L493.942966,212.238281 L493.942966,234.328125 L497.771091,234.328125 L497.771091,238 L485.739841,238 L485.739841,234.328125 L489.489841,234.328125 L489.489841,212.238281 L483.454685,212.238281 L483.454685,219.328125 L479.821873,219.328125 L479.821873,208.566406 L503.649998,208.566406 L503.649998,219.328125 L500.017185,219.328125 Z M540.153435,217.160156 L540.153435,212.238281 L527.555779,212.238281 L527.555779,221.007812 L538.51281,221.007812 L538.51281,224.679688 L527.555779,224.679688 L527.555779,234.328125 L540.153435,234.328125 L540.153435,228.957031 L543.786247,228.957031 L543.786247,238 L519.313591,238 L519.313591,234.328125 L523.102654,234.328125 L523.102654,212.238281 L519.313591,212.238281 L519.313591,208.566406 L543.786247,208.566406 L543.786247,217.160156 L540.153435,217.160156 Z M588.570934,222.84375 C588.570934,227.882838 587.050767,231.668607 584.010387,234.201172 C580.970008,236.733737 576.448568,238 570.445934,238 L559.449841,238 L559.449841,234.328125 L563.395153,234.328125 L563.395153,212.238281 L559.449841,212.238281 L559.449841,208.566406 L570.641247,208.566406 C576.669923,208.566406 581.165321,209.705718 584.127575,211.984375 C587.089829,214.263032 588.570934,217.882788 588.570934,222.84375 Z M583.727184,223.039062 C583.727184,220.53905 583.287736,218.50131 582.408825,216.925781 C581.529914,215.350253 580.136699,214.175134 578.229137,213.400391 C576.321576,212.625647 573.805325,212.238281 570.680309,212.238281 L567.848278,212.238281 L567.848278,234.328125 L570.641247,234.328125 C575.172519,234.328125 578.486288,233.419931 580.582653,231.603516 C582.679018,229.7871 583.727184,226.932311 583.727184,223.039062 Z" id="MACHINE-LIMITED-Copy" fill="#000000"></path>
        </g>
    </g>
</svg>